<svg id="svg" version="1.1" viewBox="0 0 300 300" width="300" height="300" xmlns="http://www.w3.org/2000/svg"><svg xmlns="http://www.w3.org/2000/svg"><defs><clipPath id="clip-1"><rect x="0" y="0" transform="scale(0.15,0.15)" width="2000" height="2000" fill="none"/></clipPath></defs><g clip-path="url(#clip-1)" fill="none" fill-rule="nonzero" stroke="none" stroke-width="1" stroke-linecap="butt" stroke-linejoin="miter" stroke-miterlimit="10" stroke-dasharray="" stroke-dashoffset="0" font-family="none" font-weight="none" font-size="none" text-anchor="none" style="mix-blend-mode: normal"><path d="M52.5708,110.4342c3.0939,-0.25905 5.5446,-0.12705 6.81795,3.09945c0.30405,0.7704 4.27995,0.55575 5.26965,0.70425c0.21705,-0.3723 0.14535,-1.098 0.1557,-1.6017c1.6401,-2.8683 4.95285,-2.1729 7.91895,-2.21655c1.54035,1.06935 1.70715,2.001 2.01795,3.72045c2.80125,-0.1737 7.54275,-0.0111 10.46145,-0.00945l-0.00525,-0.1377c-0.0336,-0.993 -0.14385,-1.34265 0.5913,-2.1174c1.5261,-1.59855 4.30905,-1.7571 5.86245,-0.10425c0.999,1.0629 0.39855,1.74375 0.62115,2.69655c1.34535,0.43515 9.4704,-0.55785 9.3282,0.8712c-0.1326,1.33275 0.2208,5.1825 -0.2586,5.9547c-1.19985,0.5913 -7.5222,0.4377 -9.1539,0.38835c0.3387,4.9431 -0.5175,13.8069 1.2141,18.0195c0.56805,1.3821 1.4235,2.4195 2.3328,3.5817c0.3978,-1.34355 1.83825,-4.8219 2.69415,-6.009c0.1809,-0.25095 0.1788,-0.1827 0.4851,-0.19035c0.3267,0.2445 0.61785,0.65535 0.71175,1.05915c3.40095,14.6289 1.33905,31.4214 -14.6064,37.3689c-6.59055,2.9985 -15.0753,2.7945 -22.06665,2.2725c-18.1656,-1.3545 -27.7281,-16.3125 -28.92405,-33.2424c-0.38055,-5.38815 -0.5763,-10.4535 4.1508,-14.2746c3.621,-2.9268 9.0108,-3.3294 13.41975,-2.86485c-0.0453,-1.7928 -0.0168,-3.70155 -0.01905,-5.5032c-1.8114,0.1017 -16.7898,0.2607 -17.5551,-0.1131c-0.33255,-0.74385 -0.0603,-6.92385 0.4578,-7.518c1.47555,-0.48165 11.57445,-0.27495 13.7991,-0.2679c0.8208,-2.3145 1.8795,-3.12735 4.2789,-3.56625zM67.674,147.8805c-0.6477,0.144 -1.2942,0.2937 -1.93935,0.44895c-1.21995,1.20225 -0.9696,0.9816 -1.8357,2.36805c-0.91665,1.4685 -1.0089,4.764 -2.4171,5.055c-0.24255,-0.153 -0.53235,-0.3015 -0.5097,-0.6675c0.19065,-3.0825 1.6959,-6.3414 4.1292,-8.28105c-4.287,-4.6323 -0.76425,-12.5742 -7.93275,-15.9741c-2.83365,-1.344 -4.65255,-2.04945 -7.89195,-2.14545c-7.8432,-0.2325 -13.93785,3.5007 -13.88115,11.8878c0.0684,10.0923 2.82465,20.5248 10.0458,27.8718c6.90705,6.975 15.09015,8.052 24.3849,8.091c10.32345,0.0435 20.33325,-2.646 26.04885,-11.91c4.4766,-7.5195 3.73995,-16.0272 2.769,-24.29115c-0.6483,1.4253 -1.15305,3.71715 -2.1066,4.48395c-0.44445,0.11505 -0.7734,0.16725 -1.1937,-0.1176c-3.2358,-2.19645 -4.4262,-6.9774 -4.57815,-10.66185c-0.28395,-6.8808 -0.11955,-13.8165 -0.1713,-20.7015c-0.01305,-1.7277 -2.98485,-1.1634 -3.68925,-0.2952c-0.2085,0.8142 0.1305,1.7775 0.0498,2.90025c-0.6996,9.74385 3.0333,24.6876 -6.93975,30.8052c0.81975,3.3204 0.5562,7.7019 -0.0987,10.9974c-1.52925,7.6935 -7.4199,12.927 -14.92545,14.652c-0.65415,0.15 -1.29225,0.276 -1.8903,-0.099l-0.1332,-0.288c0.6132,-0.882 2.74245,-1.299 3.73785,-1.689c1.80645,-0.708 3.5988,-1.4145 5.16435,-2.586c5.0097,-3.4335 6.99705,-9.9885 7.0158,-15.798c0.0072,-2.26695 -0.61455,-5.89665 -0.85485,-8.24145c-0.62805,-5.6703 -1.4526,-11.31705 -2.47215,-16.9302l-1.70415,-9.2091c-0.2496,-1.305 -0.72705,-4.7865 -1.60185,-5.59725c-0.3954,-0.1086 -0.372,-0.1284 -0.75045,0.01485c-1.50195,0.11175 -4.7601,-0.33135 -5.22315,1.3299c0.5826,0.89055 2.2428,1.0758 2.7591,2.2017c1.15995,2.52975 2.00415,5.94345 2.3223,8.71695c0.84135,7.33455 2.0115,17.99985 -3.68625,23.6586zM58.9038,130.0908c3.4254,2.7696 4.37415,4.5639 5.0595,8.98905c0.14295,0.9237 0.31755,2.5782 0.5595,3.3867c0.1548,1.20225 1.15545,3.762 2.622,3.6993c1.0653,-0.6048 1.9257,-3.31125 2.27475,-4.6527c1.61265,-6.19755 1.03245,-13.1808 -0.06075,-19.43475c-0.02205,-0.1266 -0.25875,-0.1515 -0.378,-0.1866c-2.3028,0.0933 -7.57875,0.2679 -9.72885,0.07725l-0.28725,-0.024l-0.17235,-0.01665c0.00615,2.0094 -0.10095,6.2922 0.11145,8.1624zM53.14875,122.4219c-0.1992,6.31125 -0.67935,4.46085 4.1034,6.6882c0.075,-0.6336 -0.0378,-1.4001 -0.04845,-2.0745l-0.03045,-4.6323c-1.31445,0.0054 -2.7189,-0.0156 -4.0245,0.0186zM100.23975,120.19215c-0.2751,-1.40685 -0.30195,-2.59995 -0.28005,-4.03545l-0.22515,-0.11505c-2.42505,0.0312 -5.0856,0.1101 -7.49025,0.03465c-0.0228,0.9039 -0.1278,2.9907 0.0222,3.8244l0.2085,0.1944l0.4128,-0.0183c2.3721,0.03225 5.00235,0.0108 7.35195,0.11535zM59.661,115.47045c0.05685,1.4274 0.25185,2.44335 -0.36525,3.73005l-0.28515,0.20985c-1.16265,-0.4686 -0.9312,-3.01905 -0.87195,-4.0947c-0.61695,0.1158 -2.7732,0.453 -3.2103,0.73605c-0.10665,0.9573 -0.1269,2.8929 -0.7674,3.4497c-0.54225,-0.17805 -0.2919,-0.036 -0.7101,-0.5436c-0.1728,-0.88815 -0.18375,-1.9758 -0.22335,-2.8935l-3.231,-0.7119c-0.33825,1.1526 0.25185,2.844 -0.5826,3.61125c-0.53385,0.08325 -0.30315,0.1416 -0.72465,-0.1389c-0.42225,-0.8712 -0.37335,-2.3154 -0.39825,-3.31245c-3.89955,-0.0972 -8.7555,0.16485 -12.4809,-0.04725c-0.38895,1.56825 -0.3876,3.3519 -0.4356,4.9743c5.46015,0.04575 10.9206,0.057 16.3809,0.03405c1.24665,-0.00615 6.171,-0.18585 7.0818,-0.0891c3.3381,0.2127 7.00605,0.0675 10.40385,0.15345c-1.83225,-5.4201 -1.06035,-4.9218 -6.83355,-4.9578c-0.8373,-0.00525 -1.88835,-0.0882 -2.7465,-0.1095zM51.2031,112.3287c-0.5574,0.58425 -0.6207,0.4746 -0.79965,1.15125c0.5373,0.94485 2.4561,0.9732 3.5199,1.05825c1.42305,-0.13815 2.6544,-0.2676 4.0419,-0.63705c-0.5706,-0.77955 -0.88365,-1.14435 -1.5438,-1.8453c-0.6366,-0.1545 -1.4367,-0.4167 -2.0619,-0.2412c-1.3092,0.10935 -1.8933,0.1701 -3.15645,0.51405zM82.6197,142.20135c3.71295,-6.975 2.5368,-12.6654 2.59575,-20.23815c-1.56165,0.20025 -3.0225,0.0492 -4.59105,0.05535c-1.4556,0.0057 -2.856,0.0765 -4.3134,0.0042c0.81015,4.9725 1.7625,9.9084 2.50335,14.895c0.4173,2.8077 0.7023,5.5992 1.06695,8.4129c1.14405,-1.1229 1.85745,-1.79295 2.7384,-3.1293zM85.3068,120.72435c-0.17055,-1.6401 -0.1137,-3.49395 -0.10275,-5.1588c-1.14375,0.08805 -9.35085,0.2079 -10.18695,0.0774c0.3363,1.20015 0.7887,3.51855 0.93525,4.7775c2.0967,0.16995 7.21215,0.34875 9.35445,0.3039z" fill="#fefdfe"/><path d="M41.38395,132.16155c3.13485,-0.25875 5.40465,1.3188 7.803,3.12375c3.2271,-2.1882 4.4937,-2.7405 8.4039,-2.77005c3.05835,1.60965 3.2718,4.0122 3.31815,7.23855c0.04665,3.2424 -1.07715,6.19455 -3.4056,8.49375c-3.3786,2.85195 -8.28255,3.51045 -12.52125,2.51895c-6.8028,-1.59195 -8.1651,-8.81295 -6.7875,-14.745c0.4296,-1.84935 1.5834,-2.9739 3.1893,-3.85995zM40.81395,134.23755c-1.6071,2.2857 -1.72575,6.05715 -1.35825,8.7684c1.0428,7.69455 12.79065,8.56605 17.31735,3.8547c2.127,-2.70615 2.84265,-5.9424 2.4336,-9.31935c-0.81315,-6.7131 -7.01355,-2.19 -10.0773,-0.4521l-0.16575,-0.09945c-2.196,-1.3395 -4.1226,-3.4266 -6.89115,-3.3543z" fill="#fefdfe"/><path d="M41.94825,137.80815c0.46095,-0.1854 0.98655,-0.1023 1.368,0.2163c0.38145,0.31845 0.55695,0.8208 0.45675,1.30755c-0.1002,0.48675 -0.45975,0.879 -0.93585,1.02105c-0.69105,0.20625 -1.42185,-0.16725 -1.6596,-0.84795c-0.2379,-0.68085 0.10155,-1.42815 0.7707,-1.69695z" fill="#fefdfe"/><path d="M54.3144,137.63625c1.8681,0.0204 2.172,1.74915 0.67395,2.787c-2.0895,0.0957 -1.9521,-1.60755 -0.67395,-2.787z" fill="#fefdfe"/><path d="M47.12565,141.1926c0.81525,0.20535 2.10225,-0.1416 2.42745,0.48405l-0.34275,0.44115c-0.65325,-0.021 -1.9872,0.04995 -2.4411,-0.2163l-0.0237,-0.30285z" fill-opacity="0.82353" fill="#fefdfe"/><path d="M248.847,129.35655l0.264,0.06945c0.6405,0.84255 -0.057,20.7885 0.423,24.1875l-4.8,0.0015c-0.174,-3.384 -0.4155,-8.04105 -0.03,-11.3865c-1.1295,1.8777 -2.6715,4.0371 -3.9135,5.8794c-0.996,1.4772 -2.562,3.9216 -3.723,5.1411c-2.2485,-2.7285 -5.001,-6.97665 -7.1445,-9.963c0.084,2.98695 -0.1065,7.2 0.1395,9.9795l-0.066,0.1305c-0.6,0.396 -3.5955,0.2295 -4.506,0.216c-0.1215,-2.4825 -0.5475,-22.7604 0.2805,-23.79945c1.206,0.85245 10.0275,14.1312 11.4615,16.17975c0.804,-1.48935 2.8815,-4.35165 3.888,-5.78955z" fill="#fefdfe"/><path d="M256.224,130.10355c4.1025,0.14295 9.279,-0.63045 12.5805,2.3256c3.1665,2.835 2.964,8.8113 0.018,11.7534c-1.7325,1.7295 -3.651,2.18445 -5.985,2.22975l-3.162,0.00585c0.219,1.86705 0.15,5.20635 0.1755,7.19985l-4.6995,-0.018c-0.288,-5.0775 -0.102,-10.43295 -0.1635,-15.53595c-0.0165,-1.32735 -0.087,-6.6006 0.177,-7.61865c0.429,-0.38325 0.357,-0.2613 1.059,-0.34185zM259.767,141.6102c1.863,-0.0693 4.3035,0.16845 5.592,-1.02615c1.2105,-1.84185 1.902,-4.1082 -0.417,-5.5251c-1.3005,-0.79425 -3.666,-0.65475 -5.1795,-0.65505c0.042,2.07225 0.1485,5.1837 0.0045,7.2063z" fill="#fefdfe"/><path d="M126.12795,130.2444c3.0636,-0.3885 6.35175,0.5532 8.9049,2.24415c-0.28155,0.507 -0.6753,1.3293 -0.8826,1.86645c-0.99195,2.5698 -2.3193,0.75825 -4.041,0.40695c-1.9173,-0.3912 -5.53335,-0.73845 -5.19375,2.2578c0.09525,0.83925 1.00035,1.55175 1.6764,1.95105c3.2349,1.707 7.49805,2.5107 8.15565,6.8133c0.5295,3.4641 -1.4991,6.2454 -4.6908,7.3764c-0.70365,0.249 -1.4778,0.3525 -2.22675,0.444c-3.81225,0.048 -5.7882,-0.5595 -9.0078,-2.5245c0.6777,-1.22415 1.34295,-2.45505 1.9956,-3.69255c1.7475,1.2474 9.3537,4.23255 8.99775,-1.07805c-0.11505,-1.7166 -5.16555,-3.228 -6.78675,-4.22955c-3.1497,-1.9458 -3.98955,-5.8389 -1.92705,-9.0207c1.23495,-1.8777 2.99115,-2.44665 5.0262,-2.81475z" fill="#fefdfe"/><path d="M212.3505,130.24215c3.2625,-0.32565 6.183,0.45495 8.892,2.26755c-0.6105,1.28415 -1.1175,2.349 -1.833,3.5874l-0.1995,-0.11685c-1.6935,-1.00755 -8.283,-3.41055 -8.0955,1.16265c0.039,0.9534 2.6535,2.3865 3.621,2.71995c4.8195,1.6626 8.3115,5.38335 5.256,10.56915c-1.242,2.091 -3.423,2.712 -5.7735,3.1605c-3.4995,0.1005 -6.279,-0.516 -9.1575,-2.5515c0.7635,-1.25385 1.263,-2.28915 2.112,-3.5712c0.5865,0.3564 1.194,0.6768 1.8195,0.95955c1.5045,0.6846 3.9915,1.30965 5.55,0.62895c1.179,-0.5148 1.344,-1.07565 1.749,-2.15925c-1.095,-2.92515 -4.452,-3.29535 -6.9525,-4.84965c-3.468,-2.15565 -3.9735,-5.75265 -1.9305,-9.10545c1.068,-1.75515 3.072,-2.37075 4.9425,-2.7018z" fill="#fefdfe"/><path d="M178.785,128.3073c0.8415,0.0225 2.367,-0.0093 3.087,0.2808c0.5265,0.9939 0.1815,11.66835 -0.0915,13.3125c4.02,-4.6638 10.362,-3.4875 10.1085,3.1458c-0.102,2.6694 -0.0555,5.9016 0.141,8.5701l-4.6605,-0.018c-0.105,-1.434 -0.1605,-2.8725 -0.165,-4.311c-0.006,-1.0512 0.3225,-5.68875 -0.5805,-6.0765c-5.3955,-2.31465 -4.734,7.5045 -4.3095,10.407l-4.6575,-0.018c-0.282,-4.62495 0,-10.3269 -0.0945,-15.02865c-0.0375,-1.89945 -0.0975,-8.29035 0.1215,-9.915c0.441,-0.3942 0.375,-0.26835 1.101,-0.34905z" fill="#fefdfe"/><path d="M152.6925,138.54c4.293,-0.7308 8.358,2.17725 9.0525,6.47565c0.6945,4.2984 -2.2485,8.33835 -6.552,8.99685c-4.2525,0.651 -8.23545,-2.2485 -8.92185,-6.4962c-0.68655,-4.24755 2.1798,-8.2542 6.42135,-8.9763zM154.701,150.1995c3.9705,-1.54275 3.453,-8.31045 -1.5135,-7.83735c-1.272,0.6498 -1.602,0.8778 -2.142,2.27055c-0.9765,2.51415 0.456,6.2583 3.6555,5.5668z" fill="#fefdfe"/><path d="M138.66285,128.3943c1.002,-0.1194 3.1704,-0.1287 4.1274,0.1779c0.4098,0.5247 0.26085,22.3263 0.29175,25.0308c-1.51635,0.0165 -3.0327,0.0195 -4.54905,0.012c-0.1623,-3.081 -0.47235,-23.23575 0.1299,-25.2207z" fill="#fefdfe"/><path d="M166.8675,133.23255c0.9795,-0.1365 3.0675,-0.04365 4.1385,-0.0258c-0.009,1.70985 0.0675,4.23765 -0.1875,5.865c3.879,-0.05835 3.3615,-0.12645 3.597,3.67305c-1.0965,0.06615 -2.34,0.06585 -3.4485,0.09105c0.084,3.04575 0.0345,6.3837 0.0435,9.45165c0.0165,0.456 0.0975,0.891 -0.1245,1.2615c-1.0635,0.1515 -3.282,0.0645 -4.4355,0.0525c-0.0915,-2.157 -0.048,-8.9769 -0.4005,-10.5561c-1.824,-1.6041 -1.6635,-3.07635 0.3825,-4.31355c-0.0405,-1.24815 -0.252,-4.5624 0.435,-5.4993z" fill="#fefdfe"/></g></svg></svg>