<?xml version="1.0" encoding="UTF-8"?>
<svg version="1.1" xmlns="http://www.w3.org/2000/svg" width="500" height="500">
<path d="M0 0 C0.54333984 1.10408203 0.54333984 1.10408203 1.09765625 2.23046875 C2.51541787 5.09790302 3.55361829 6.9024936 6 9 C10.35311526 10.12783729 14.82803628 10.02907924 19.296875 10 C23 10 23 10 25 11 C24.9175 9.783125 24.835 8.56625 24.75 7.3125 C24.76133761 4.10962463 24.98704246 3.02292489 26.625 0.125 C31.99394612 -4.67879389 38.65224413 -4.45266849 45.5 -4.5625 C46.42425781 -4.61212891 47.34851563 -4.66175781 48.30078125 -4.71289062 C52.01575031 -4.76869488 54.83684112 -4.80358955 57.95703125 -2.64794922 C61.99562774 1.65932479 62.08740267 3.61181872 63 10 C75.87 10 88.74 10 102 10 C102 7.69 102 5.38 102 3 C105.53412451 -0.73607449 109.60615026 -2.66897274 114.68359375 -3.37109375 C123.05450661 -3.57294555 123.05450661 -3.57294555 126.6875 -1.125 C129.23273535 2.31450724 129.26726195 3.11534604 129.14453125 7.1953125 C129.12366455 8.09523926 129.10279785 8.99516602 129.08129883 9.92236328 C129.04105591 10.95079346 129.04105591 10.95079346 129 12 C130.05501709 11.99476318 131.11003418 11.98952637 132.19702148 11.98413086 C136.0975663 11.96608099 139.9981074 11.95456805 143.89868164 11.94506836 C145.58944316 11.9400281 147.28020029 11.93319595 148.97094727 11.92456055 C151.39600707 11.91248143 153.82100944 11.90676877 156.24609375 11.90234375 C157.38672523 11.89460182 157.38672523 11.89460182 158.55039978 11.88670349 C160.3673257 11.88650762 162.18413127 11.93802723 164 12 C165.74545605 13.74545605 165.1302316 16.16124217 165.1328125 18.53125 C165.13410156 19.65144531 165.13539063 20.77164063 165.13671875 21.92578125 C165.13285156 23.10527344 165.12898438 24.28476563 165.125 25.5 C165.12886719 26.67949219 165.13273437 27.85898438 165.13671875 29.07421875 C165.13478516 30.75451172 165.13478516 30.75451172 165.1328125 32.46875 C165.13168457 33.50451172 165.13055664 34.54027344 165.12939453 35.60742188 C165 38 165 38 164 39 C161.47905924 39.08847743 158.98569107 39.11527301 156.46484375 39.09765625 C155.33496788 39.09553383 155.33496788 39.09553383 154.18226624 39.09336853 C151.7673044 39.08775376 149.35243399 39.07519883 146.9375 39.0625 C145.30403779 39.0574869 143.67057414 39.05292366 142.03710938 39.04882812 C138.02470415 39.03777954 134.01236759 39.02050506 130 39 C130.06750481 46.45270525 130.1575031 53.90490654 130.26245117 61.35717773 C130.29551214 63.88739005 130.32360134 66.41767278 130.34643555 68.94799805 C130.38032967 72.60495756 130.43266156 76.26128255 130.48828125 79.91796875 C130.49786613 81.58909981 130.49786613 81.58909981 130.50764465 83.29399109 C130.75836558 96.97547046 133.75693708 108.0796424 142 119 C142.25168945 118.40461426 142.50337891 117.80922852 142.76269531 117.19580078 C143.9115537 114.49951123 145.08045863 111.81237876 146.25 109.125 C146.64574219 108.18785156 147.04148437 107.25070313 147.44921875 106.28515625 C147.84238281 105.38925781 148.23554688 104.49335938 148.640625 103.5703125 C149.17478027 102.32918701 149.17478027 102.32918701 149.71972656 101.06298828 C151.2018816 98.67469498 152.41245519 97.99778019 155 97 C157.90560897 99.41770094 158.52568369 101.2831553 159.1328125 104.97265625 C159.38224609 106.44702148 159.38224609 106.44702148 159.63671875 107.95117188 C159.79785156 108.97791016 159.95898438 110.00464844 160.125 111.0625 C160.29386719 112.06216797 160.46273437 113.06183594 160.63671875 114.09179688 C166.06032055 146.95369911 165.06730338 182.53873213 146 211 C128.57714988 235.02617232 102.17657115 247.17868338 73.5625 252.25 C71.71061136 252.51635033 69.85645542 252.76760529 68 253 C67.20722656 253.11085938 66.41445313 253.22171875 65.59765625 253.3359375 C24.95445917 258.08727491 -16.02929373 250.98169326 -48.6875 225.75 C-58.8657243 217.1284453 -66.53979359 206.61773745 -73 195 C-73.3309668 194.41444336 -73.66193359 193.82888672 -74.00292969 193.22558594 C-85.95000503 171.83517639 -92.28583156 146.46026919 -93 122 C-93.02578125 121.22946289 -93.0515625 120.45892578 -93.078125 119.66503906 C-93.58231372 102.71799565 -92.71415859 88.07525951 -80.96484375 74.6796875 C-68.67788371 62.95021204 -53.25635566 59.43248355 -36.75 59.8125 C-35.61175781 59.82603516 -34.47351563 59.83957031 -33.30078125 59.85351562 C-30.53333013 59.88839946 -27.76693895 59.93740683 -25 60 C-25.16242188 59.10539062 -25.32484375 58.21078125 -25.4921875 57.2890625 C-25.91072959 54.57819756 -26.13465365 52.10698276 -26.125 49.375 C-26.12886719 48.27285156 -26.12886719 48.27285156 -26.1328125 47.1484375 C-25.99891829 44.98250171 -25.55153681 43.09277274 -25 41 C-25.8224118 41.00444122 -26.64482361 41.00888245 -27.49215698 41.01345825 C-35.23221916 41.05348672 -42.97223135 41.08395975 -50.71236992 41.10362434 C-54.69191773 41.11407386 -58.67138021 41.12825422 -62.65087891 41.15087891 C-66.48933886 41.17256585 -70.32771659 41.18455982 -74.16623306 41.18975449 C-75.63270487 41.19345773 -77.09917205 41.200689 -78.56560898 41.21146011 C-80.61529106 41.22592019 -82.66463082 41.22798029 -84.71435547 41.22705078 C-85.88239716 41.231492 -87.05043884 41.23593323 -88.25387573 41.24050903 C-91 41 -91 41 -93 39 C-94.76646707 17.53293413 -94.76646707 17.53293413 -91 10 C-73.51 10 -56.02 10 -38 10 C-37.34 8.02 -36.68 6.04 -36 4 C-33.25920513 -0.20907783 -30.71149957 -2.25500016 -26 -4 C-17.17322598 -5.71037836 -6.9951292 -6.35920836 0 0 Z M-28 5 C-28.66 5.99 -29.32 6.98 -30 8 C-26.06135741 11.93864259 -19.34807014 11.65710409 -14 12 C-10.23360335 11.64212685 -6.65454303 10.96957264 -3 10 C-2.6843643 6.81024282 -2.6843643 6.81024282 -5.1875 4.3125 C-9.33144013 1.0388862 -13.85328096 1.43428145 -18.92578125 1.63671875 C-22.53331002 2.06302139 -25.05427154 2.85041437 -28 5 Z M-85 16 C-86.56591646 21.57648156 -86.56591646 21.57648156 -86 34 C-44.09 34 -2.18 34 41 34 C37.8805164 22.01501055 37.8805164 22.01501055 34 16 C31.00941675 15.30929068 31.00941675 15.30929068 27.58203125 15.51171875 C26.32841797 15.52783203 25.07480469 15.54394531 23.78320312 15.56054688 C21.81770508 15.62338867 21.81770508 15.62338867 19.8125 15.6875 C18.47725471 15.71258339 17.14196471 15.73539652 15.80664062 15.75585938 C12.53728015 15.8148731 9.26849975 15.90455387 6 16 C5.67 20.29 5.34 24.58 5 29 C3.68 29.33 2.36 29.66 1 30 C-0.87824891 28.12175109 -0.39102397 24.96064724 -0.5625 22.4375 C-0.64628906 21.23996094 -0.73007813 20.04242188 -0.81640625 18.80859375 C-0.87699219 17.88175781 -0.93757813 16.95492187 -1 16 C-4.96 16.66 -8.92 17.32 -13 18 C-13.33 21.63 -13.66 25.26 -14 29 C-15.32 29 -16.64 29 -18 29 C-18.495 23.555 -18.495 23.555 -19 18 C-24.94 17.01 -24.94 17.01 -31 16 C-31.33 19.63 -31.66 23.26 -32 27 C-33.32 27.33 -34.64 27.66 -36 28 C-38.86744176 25.13255824 -37.6328617 20.03852125 -38 16 C-53.51 16 -69.02 16 -85 16 Z M65 17 C65.67969785 23.94170707 65.67969785 23.94170707 67.0625 30.5625 C67.371875 31.696875 67.68125 32.83125 68 34 C75.56378017 34.93938295 83.00907505 35.12265008 90.625 35.0625 C91.72457031 35.05798828 92.82414062 35.05347656 93.95703125 35.04882812 C96.6380449 35.03717154 99.31903006 35.01924141 102 35 C102 29.06 102 23.12 102 17 C89.79 17 77.58 17 65 17 Z M129 18 C128.36754447 28.62967968 128.36754447 28.62967968 130 33 C139.24 33 148.48 33 158 33 C158 28.05 158 23.1 158 18 C148.43 18 138.86 18 129 18 Z M3 41 C2.79375 45.764375 2.5875 50.52875 2.375 55.4375 C2.28395996 56.9217749 2.19291992 58.4060498 2.09912109 59.93530273 C1.87287433 67.3626226 1.87287433 67.3626226 5.1496582 73.78540039 C7.754561 76.14145053 7.754561 76.14145053 10.4987793 78.03515625 C18.82317081 84.57441471 20.14017992 96.15781323 21.68212891 105.99511719 C23.45586234 118.9749169 23.45586234 118.9749169 30 130 C32.07394134 131.20193766 32.07394134 131.20193766 34 132 C45.08035589 119.02015453 46.3923845 100.11233649 46.3125 83.8125 C46.31200653 83.12033386 46.31151306 82.42816772 46.31100464 81.71502686 C46.9556693 60.76271073 46.9556693 60.76271073 42 41 C29.13 41 16.26 41 3 41 Z M69 41 C69.1451001 41.86423584 69.2902002 42.72847168 69.43969727 43.61889648 C74.07158698 71.35068965 78.10303129 99.15631499 82 127 C89.7027032 122.5780778 93.19791292 117.14002496 96.6875 109.25 C96.97286621 108.60716064 97.25823242 107.96432129 97.55224609 107.30200195 C98.43233873 105.22021465 99.23137131 103.12548411 100 101 C100.28536621 100.2160083 100.57073242 99.4320166 100.86474609 98.62426758 C103.32181488 90.92869331 103.3937779 83.39968547 103.28125 75.4128418 C103.25019639 73.20148506 103.24026789 70.99085011 103.234375 68.77929688 C103.18491502 59.81467624 102.76316197 50.9352068 102 42 C97.77717482 41.19604975 93.80386236 40.88188637 89.5078125 40.90234375 C88.30898438 40.90556641 87.11015625 40.90878906 85.875 40.91210938 C84.6375 40.92048828 83.4 40.92886719 82.125 40.9375 C80.86429688 40.94201172 79.60359375 40.94652344 78.3046875 40.95117188 C75.20307614 40.9629204 72.10156275 40.97934833 69 41 Z M-19 42 C-19 48.6 -19 55.2 -19 62 C-15.844375 62.99 -15.844375 62.99 -12.625 64 C-10.84996094 64.556875 -10.84996094 64.556875 -9.0390625 65.125 C-6.20676561 66.09222606 -6.20676561 66.09222606 -4 66 C-4 58.08 -4 50.16 -4 42 C-8.95 42 -13.9 42 -19 42 Z M42.5 2.25 C41.72785156 2.27707031 40.95570313 2.30414063 40.16015625 2.33203125 C35.92541611 2.47245463 35.92541611 2.47245463 32.25585938 4.34667969 C30.69755975 6.05212301 30.69755975 6.05212301 31 9 C32.051875 9.33 33.10375 9.66 34.1875 10 C39.05207757 12.18269778 40.9392586 15.16674797 43 20 C47.55227933 33.02006081 49.48711084 46.33688339 51 60 C51.09571289 60.80501953 51.19142578 61.61003906 51.29003906 62.43945312 C54.04521727 87.06817877 53.68654236 115.35101704 38.6484375 136.20703125 C36.5181458 138.52410208 34.79271799 138.95715038 31.6875 139.125 C26.39595853 140.84782746 23.39995538 145.9668753 20.8125 150.6875 C18.37384473 155.86071432 17.22339984 161.43909164 16 167 C14.35 167.33 12.7 167.66 11 168 C9.8354897 155.19038666 17.19648269 143.53576361 25 134 C24.59007812 133.2265625 24.18015625 132.453125 23.7578125 131.65625 C23.21898437 130.6146875 22.68015625 129.573125 22.125 128.5 C21.59132813 127.4790625 21.05765625 126.458125 20.5078125 125.40625 C17.80213756 119.29394805 16.82642473 113.21474252 16.01220703 106.64111328 C14.99884966 98.59368429 14.10148767 91.57661663 9 85 C8.29875 83.96875 7.5975 82.9375 6.875 81.875 C-3.19495201 70.68960715 -19.40735675 66.82804595 -33.84375 65.796875 C-48.82853601 65.5324376 -64.09221188 68.29205285 -75.4375 78.75 C-84.48475415 88.58724308 -86.37574917 99.75560197 -86.3125 112.625 C-86.30686035 113.82342529 -86.3012207 115.02185059 -86.29541016 116.2565918 C-85.81956902 151.65964345 -74.91654192 187.3255145 -51 214 C-50.37738281 214.70511719 -49.75476563 215.41023437 -49.11328125 216.13671875 C-29.92405014 236.61327773 -1.0121267 245.49745464 26.34375 246.87109375 C27.89568151 246.91923501 29.4478025 246.96137472 31 247 C32.07507813 247.02723145 33.15015625 247.05446289 34.2578125 247.08251953 C56.19591362 247.54935011 76.29137958 246.51612984 97 239 C98.58361328 238.42958984 98.58361328 238.42958984 100.19921875 237.84765625 C120.99612033 229.77356505 137.78925415 214.9649228 147.3984375 194.78125 C153.95394928 179.8017093 156.35464421 164.6608595 156.26074219 148.39233398 C156.25006443 146.20072445 156.26067718 144.00994353 156.2734375 141.81835938 C156.28334446 132.52263244 156.04763697 123.10461429 154 114 C153.34 113.67 152.68 113.34 152 113 C150.02 117.62 148.04 122.24 146 127 C139.04834495 125.84139082 137.15138546 124.33749559 133 119 C125.8229832 107.60576039 123.84885036 94.6613226 123.8581543 81.4284668 C123.85467987 80.61281754 123.85120544 79.79716827 123.84762573 78.95680237 C123.84032189 77.20100764 123.83494819 75.44520401 123.83133507 73.68939781 C123.82412014 70.91124999 123.80842131 68.13327376 123.78999329 65.35517883 C123.73772435 57.46198709 123.68947176 49.5688987 123.67407227 41.67553711 C123.66401387 36.83562116 123.63476099 31.99615187 123.59275246 27.15641212 C123.58042387 25.31401756 123.57532458 23.47156006 123.57755089 21.6291256 C123.57989364 19.0604471 123.55782324 16.49306432 123.5300293 13.92456055 C123.53663071 13.1624527 123.54323212 12.40034485 123.55003357 11.61514282 C123.4915238 8.33313721 123.43348981 6.48054672 121.18952942 3.99299622 C117.87909246 2.49164559 115.46776105 3.18034739 112 4 C111.01 4.66 110.02 5.32 109 6 C108.71544709 8.74760461 108.62492757 11.27093435 108.6628418 14.01953125 C108.6622879 14.84922424 108.66173401 15.67891724 108.66116333 16.53375244 C108.66142382 18.34202258 108.66833215 20.15030087 108.68100548 21.95852661 C108.69937563 24.83708334 108.6967137 27.7149115 108.6879425 30.59350586 C108.66614746 38.78054811 108.67663914 46.96731944 108.71508789 55.15429688 C108.7371188 60.16246557 108.72941161 65.16992524 108.7046299 70.17807007 C108.70107633 72.07230866 108.70847927 73.96660572 108.72788048 75.86074829 C108.91266202 94.29030596 104.91056078 111.35274852 93.625 126.375 C90.41075023 129.58924977 86.9476334 131.7861907 83 134 C83.23976563 135.62421875 83.23976563 135.62421875 83.484375 137.28125 C86.51710279 161.75815941 83.51251925 186.65320425 68.00390625 206.5625 C58.09694186 218.14711433 46.04378453 225.21465063 31.6875 229.8125 C31.00534424 230.03188232 30.32318848 230.25126465 29.62036133 230.47729492 C25.98690155 231.58499706 22.80142328 232.25734974 19 232 C19.33 230.35 19.66 228.7 20 227 C21.06476563 226.731875 22.12953125 226.46375 23.2265625 226.1875 C42.09422645 221.19241112 58.50341368 212.04814691 69 195 C92.27128687 153.91842157 71.68647604 90.37782637 64 47 C63.83568481 46.071875 63.67136963 45.14375 63.5020752 44.1875 C62.56390955 38.90535582 61.61019072 33.62635823 60.63400269 28.35110474 C60.34057889 26.76497977 60.04927477 25.17846094 59.76028442 23.59152222 C59.36327457 21.42254484 58.95503734 19.25600415 58.54296875 17.08984375 C58.31633545 15.88191162 58.08970215 14.67397949 57.85620117 13.42944336 C56.90523326 9.6204196 55.78413481 6.49791169 54 3 C50.10238836 1.70079612 46.53838122 2.02751823 42.5 2.25 Z " fill="#FFFFFF" transform="translate(214,88)"/>
<path d="M0 0 C2.33079313 1.62622331 4.61994451 3.27336404 6.859375 5.0234375 C8.9962871 6.27325257 8.9962871 6.27325257 11.38671875 5.35546875 C12.24910156 4.90816406 13.11148438 4.46085938 14 4 C14.98097656 3.51402344 15.96195313 3.02804688 16.97265625 2.52734375 C19.03567082 1.46584321 21.09816974 0.40333994 23.16015625 -0.66015625 C29.54213959 -3.67118828 36.03070105 -3.59885632 43 -3 C47.83647261 -0.96359048 50.11400919 1.8660731 52.18359375 6.55078125 C56.59279123 19.77837368 56.06370753 34.42558085 50 47 C45.05874552 56.38537056 37.70908493 62.61797785 27.73046875 66.22265625 C13.8012763 70.18819172 -1.75981892 70.9435357 -15.05859375 64.5234375 C-25.36700962 58.39713336 -30.56905768 50.24397802 -33.59375 38.7421875 C-35.308132 27.17010902 -35.56058905 12.07519032 -29 2 C-19.63389336 -6.95888461 -10.86406987 -6.05016305 0 0 Z M-23 5 C-28.55907437 14.48231139 -29.05788912 27.3675729 -27 38 C-24.20034858 47.77106065 -19.39843544 53.77624109 -10.51953125 58.7421875 C0.06464291 64.02606979 14.14630931 63.28248278 25.31640625 60.0390625 C33.4563582 56.88734894 40.3107543 51.42158828 44.21875 43.54296875 C48.83791173 32.53946562 49.57811617 20.47892759 46 9 C44.42840477 5.91967335 43.41269245 4.53088443 40.16015625 3.30859375 C31.0803031 1.48605541 22.92202268 6.70754244 15.5 11.375 C14.7265625 11.89835937 13.953125 12.42171875 13.15625 12.9609375 C11 14 11 14 9.01171875 13.87109375 C6.48960238 12.77899287 4.50922585 11.33946614 2.3125 9.6875 C-5.28774075 4.24756332 -14.43147462 -1.94745301 -23 5 Z " fill="#FFFFFF" transform="translate(170,171)"/>
<path d="M0 0 C4.18232995 1.39410998 5.48718369 4.37642402 7.75 7.9375 C8.63707652 9.30269739 9.525102 10.66727863 10.4140625 12.03125 C10.85008789 12.70414062 11.28611328 13.37703125 11.73535156 14.0703125 C14.38763494 18.11734875 17.1975669 22.05617858 20 26 C25.58032889 19.34837588 30.54618753 12.43159515 35.31762695 5.18359375 C36.49646697 3.42220095 37.74258588 1.70618818 39 0 C39.66 0 40.32 0 41 0 C41 13.53 41 27.06 41 41 C38.03 41 35.06 41 32 41 C31.67 36.38 31.34 31.76 31 27 C30.30132812 28.010625 29.60265625 29.02125 28.8828125 30.0625 C27.96389119 31.37524473 27.04460128 32.68773151 26.125 34 C25.43470703 35.00160156 25.43470703 35.00160156 24.73046875 36.0234375 C23.53694054 37.71859351 22.27309661 39.3637578 21 41 C20.34 41 19.68 41 19 41 C17.37322909 38.86229382 15.86020356 36.7324466 14.375 34.5 C13.95476562 33.87996094 13.53453125 33.25992188 13.1015625 32.62109375 C12.06162833 31.08482736 11.03002944 29.54292476 10 28 C9.67 32.29 9.34 36.58 9 41 C6.03 41 3.06 41 0 41 C0 27.47 0 13.94 0 0 Z " fill="#FFFFFF" transform="translate(300,362)"/>
<path d="M0 0 C19 0 19 0 24 3 C27.32024488 7.80863052 27.74051042 12.3396601 27 18 C25.78334022 21.45787516 24.65973081 23.38150237 22 25.875 C17.3169019 27.63116179 12.97914729 27.17996918 8 27 C8 30.96 8 34.92 8 39 C5.36 39 2.72 39 0 39 C0 26.13 0 13.26 0 0 Z M8 7 C8 10.96 8 14.92 8 19 C13.48568677 18.79951647 13.48568677 18.79951647 18.125 16.3125 C19.37191583 13.0170796 18.35899057 11.14713605 17 8 C14.03 7.67 11.06 7.34 8 7 Z " fill="#FFFFFF" transform="translate(350,364)"/>
<path d="M0 0 C2.406806 0.75482267 3.90710094 1.56486922 6 3 C5.34 5.31 4.68 7.62 4 10 C3.34 9.835 2.68 9.67 2 9.5 C-1.73099794 8.87816701 -5.21873378 8.93591074 -9 9 C-9 10.32 -9 11.64 -9 13 C-8.24074219 13.39832031 -7.48148437 13.79664063 -6.69921875 14.20703125 C-5.70535156 14.73683594 -4.71148437 15.26664062 -3.6875 15.8125 C-2.70136719 16.33457031 -1.71523438 16.85664063 -0.69921875 17.39453125 C4.523081 20.50070375 4.523081 20.50070375 5.65234375 24.05078125 C6.19192817 28.33049879 6.26565716 30.45884653 4.3125 34.4375 C1.30397311 37.77127304 -0.53532585 38.85428952 -5.0234375 39.30078125 C-16.37473233 39.34047109 -16.37473233 39.34047109 -21 36 C-21.33 35.34 -21.66 34.68 -22 34 C-20.02 31.03 -20.02 31.03 -18 28 C-17.34 28.33 -16.68 28.66 -16 29 C-12.13938967 30.28687011 -9.05849717 30.13757618 -5 30 C-4.67 28.35 -4.34 26.7 -4 25 C-4.825 24.773125 -5.65 24.54625 -6.5 24.3125 C-11.56190754 22.41428467 -16.39777377 20.21846709 -19.625 15.75 C-20.18536402 11.64066388 -19.72833927 7.78879079 -18 4 C-12.73435851 -1.41608839 -7.11107224 -0.77526727 0 0 Z " fill="#FFFFFF" transform="translate(288,364)"/>
<path d="M0 0 C1.83498047 -0.03867187 1.83498047 -0.03867187 3.70703125 -0.078125 C7.38085454 0.26822871 9.23174837 1.11059882 12.1875 3.25 C11.3125 8 11.3125 8 10.1875 10.25 C9.5275 10.085 8.8675 9.92 8.1875 9.75 C4.45650206 9.12816701 0.96876622 9.18591074 -2.8125 9.25 C-2.8125 10.57 -2.8125 11.89 -2.8125 13.25 C-1.98105469 13.62511719 -1.14960938 14.00023437 -0.29296875 14.38671875 C0.79371094 14.89847656 1.88039062 15.41023438 3 15.9375 C4.61841797 16.68580078 4.61841797 16.68580078 6.26953125 17.44921875 C9.48367364 19.43277918 10.64945669 20.83795852 12.1875 24.25 C13.02139634 30.81693369 13.02139634 30.81693369 11.1328125 34.0625 C9.36254569 36.24128992 7.71481261 37.9863437 5.1875 39.25 C2.94094413 39.39977039 0.68886232 39.47150174 -1.5625 39.5 C-2.77421875 39.52578125 -3.9859375 39.5515625 -5.234375 39.578125 C-9.0873711 39.22479348 -11.49425572 38.18394605 -14.8125 36.25 C-14.31418276 32.56245243 -13.71182357 30.64509338 -10.8125 28.25 C-10.3175 28.58 -9.8225 28.91 -9.3125 29.25 C-5.72159106 30.68636358 -2.66793873 30.37851462 1.1875 30.25 C1.5175 28.93 1.8475 27.61 2.1875 26.25 C1.43984375 25.86328125 0.6921875 25.4765625 -0.078125 25.078125 C-1.06296875 24.55734375 -2.0478125 24.0365625 -3.0625 23.5 C-4.03703125 22.98953125 -5.0115625 22.4790625 -6.015625 21.953125 C-8.80190706 20.25645045 -10.7850335 18.80328142 -12.8125 16.25 C-13.87551505 11.4429834 -13.50244055 7.3769029 -10.9375 3.1875 C-7.31824771 -0.1124065 -4.83671126 0.06077543 0 0 Z " fill="#FFFFFF" transform="translate(137.8125,363.75)"/>
<path d="M0 0 C2.64 0 5.28 0 8 0 C8.33 6.27 8.66 12.54 9 19 C10.65 18.34 12.3 17.68 14 17 C17.34790182 17.13664905 19.35890769 17.5818461 22.16796875 19.4140625 C25.03125998 23.45563776 24.42544425 27.43203102 24.25 32.25 C24.23195312 33.18585938 24.21390625 34.12171875 24.1953125 35.0859375 C24.14825673 37.39167015 24.08253713 39.69530945 24 42 C21.36 42 18.72 42 16 42 C15.67 36.72 15.34 31.44 15 26 C13.35 26.33 11.7 26.66 10 27 C8.58365167 29.83269666 8.6536995 32.47466438 8.4375 35.625 C8.35371094 36.81351562 8.26992187 38.00203125 8.18359375 39.2265625 C8.12300781 40.14179688 8.06242188 41.05703125 8 42 C5.36 42 2.72 42 0 42 C0 28.14 0 14.28 0 0 Z " fill="#FFFFFF" transform="translate(221,361)"/>
<path d="M0 0 C3.74781456 2.09877615 5.35806681 4.11195908 7 8 C7.58909226 12.27665678 7.48792817 15.93120496 5.6875 19.875 C2.73164932 23.59718234 0.9062222 25.66232466 -4.05078125 26.23828125 C-9.54775239 26.41866545 -12.7545588 25.84111347 -17 22 C-20.09705551 17.70408429 -20.41634453 14.2693928 -19.65234375 9.1875 C-18.57124277 5.56225119 -16.69409757 3.62838787 -14 1 C-9.82437724 -1.08781138 -4.54816058 -0.44327867 0 0 Z M-11 9 C-11.46498298 13.70696153 -11.46498298 13.70696153 -9.8125 18 C-7.97085189 19.21478802 -7.97085189 19.21478802 -5.4375 18.9375 C-2.92271128 18.20909958 -2.92271128 18.20909958 -1.625 16.25 C-0.84540143 13.44344513 -1.12770245 11.76227559 -2 9 C-3.82703227 6.7508092 -3.82703227 6.7508092 -6.5 6.75 C-9.17296773 6.7508092 -9.17296773 6.7508092 -11 9 Z " fill="#FFFFFF" transform="translate(188,378)"/>
<path d="M0 0 C2.97 0 5.94 0 9 0 C9 13.86 9 27.72 9 42 C6.03 42 3.06 42 0 42 C0 28.14 0 14.28 0 0 Z " fill="#FFFFFF" transform="translate(155,361)"/>
<path d="M0 0 C2.64 0 5.28 0 8 0 C8 2.97 8 5.94 8 9 C9.98 9 11.96 9 14 9 C14 11.31 14 13.62 14 16 C12.02 16 10.04 16 8 16 C8 21.94 8 27.88 8 34 C5.36 34 2.72 34 0 34 C0 28.06 0 22.12 0 16 C-1.32 16 -2.64 16 -4 16 C-4 13.69 -4 11.38 -4 9 C-2.68 9 -1.36 9 0 9 C0 6.03 0 3.06 0 0 Z " fill="#FFFFFF" transform="translate(202,369)"/>
<path d="M0 0 C2 2 2 2 2.25 5 C2 8 2 8 0 10 C-3.5 10.25 -3.5 10.25 -7 10 C-9 8 -9 8 -9.375 5.0625 C-9 2 -9 2 -7.3125 0.0625 C-4.38550346 -1.28233625 -3.01415011 -1.03115662 0 0 Z " fill="#FFFFFF" transform="translate(204,188)"/>
<path d="M0 0 C2.9375 0.875 2.9375 0.875 4.375 2.625 C5.06479309 5.38417237 4.7425621 7.16706384 3.9375 9.875 C2.9375 10.875 2.9375 10.875 -0.5 11.0625 C-4.0625 10.875 -4.0625 10.875 -6.0625 8.875 C-6.375 5.375 -6.375 5.375 -6.0625 1.875 C-3.0625 -0.125 -3.0625 -0.125 0 0 Z " fill="#FFFFFF" transform="translate(155.0625,187.125)"/>
<path d="M0 0 C1.65322266 0.01740234 1.65322266 0.01740234 3.33984375 0.03515625 C4.99693359 0.04869141 4.99693359 0.04869141 6.6875 0.0625 C7.54214844 0.07410156 8.39679688 0.08570313 9.27734375 0.09765625 C10.33984375 1.97265625 10.33984375 1.97265625 11.27734375 4.09765625 C10.94734375 4.75765625 10.61734375 5.41765625 10.27734375 6.09765625 C5.98734375 6.09765625 1.69734375 6.09765625 -2.72265625 6.09765625 C-3.05265625 4.44765625 -3.38265625 2.79765625 -3.72265625 1.09765625 C-2.72265625 0.09765625 -2.72265625 0.09765625 0 0 Z " fill="#FFFFFF" transform="translate(172.72265625,199.90234375)"/>
</svg>
